<?xml version="1.0" standalone="no"?>
<!DOCTYPE svg PUBLIC "-//W3C//DTD SVG 20010904//EN"
 "http://www.w3.org/TR/2001/REC-SVG-20010904/DTD/svg10.dtd">
<svg version="1.0" xmlns="http://www.w3.org/2000/svg"
 width="180.000000pt" height="96.000000pt" viewBox="0 0 180.000000 96.000000"
 preserveAspectRatio="xMidYMid meet">

<g transform="translate(0.000000,96.000000) scale(0.100000,-0.100000)"
fill="#000000" stroke="none">
<path d="M450 877 l-45 -12 -3 -191 c-2 -181 -1 -192 19 -217 16 -21 29 -27
62 -28 33 0 38 -2 21 -9 -12 -4 -31 -21 -42 -37 -12 -15 -22 -23 -22 -16 0 6
5 15 10 18 18 11 11 25 -13 25 -52 0 -57 19 -57 239 l0 202 -31 -18 c-46 -27
-108 -98 -132 -151 -31 -70 -29 -179 5 -253 43 -94 104 -151 198 -184 37 -13
41 -13 36 0 -3 8 -9 22 -12 30 -3 8 10 -1 29 -20 51 -51 122 -43 153 16 30 59
9 119 -50 145 -28 12 -17 13 117 14 l148 0 15 35 c7 19 14 52 14 74 0 50 0 50
-185 54 l-140 2 -3 148 c-3 167 3 158 -92 134z m70 -135 c0 -180 -9 -172 186
-172 l155 0 -6 -37 c-15 -93 10 -83 -213 -83 -141 0 -201 3 -210 12 -9 9 -12
68 -12 204 l0 193 28 4 c78 12 72 22 72 -121z m52 -398 c15 -32 0 -59 -32 -59
-13 0 -28 8 -33 17 -15 23 6 68 33 68 12 0 25 -10 32 -26z m-135 -31 c-3 -10
-5 -4 -5 12 0 17 2 24 5 18 2 -7 2 -21 0 -30z"/>
<path d="M562 744 l3 -139 149 -3 149 -3 -6 35 c-9 55 -36 103 -86 153 -51 50
-104 78 -169 89 l-43 7 3 -139z"/>
<path d="M660 325 l0 -95 55 0 c30 0 55 4 55 9 0 5 3 16 6 25 5 13 -1 16 -25
16 l-31 0 0 70 0 70 -30 0 -30 0 0 -95z"/>
<path d="M790 325 l0 -95 30 0 30 0 0 95 0 95 -30 0 -30 0 0 -95z"/>
<path d="M870 403 c1 -10 9 -52 18 -93 l18 -75 36 -3 c36 -3 37 -2 48 40 6 24
18 65 26 92 8 27 14 51 14 53 0 2 -13 3 -29 3 -31 0 -32 -2 -47 -70 l-8 -35
-11 50 c-10 44 -14 50 -38 53 -21 3 -27 -1 -27 -15z"/>
<path d="M1047 413 c-4 -3 -7 -46 -7 -95 l0 -88 55 0 c30 0 55 4 55 9 0 5 3
16 6 25 5 13 -1 16 -25 16 -35 0 -42 15 -11 23 12 3 20 14 20 26 0 14 -6 21
-20 21 -11 0 -20 5 -20 10 0 6 13 10 29 10 25 0 28 3 23 25 -4 22 -9 25 -51
25 -26 0 -51 -3 -54 -7z"/>
<path d="M1175 401 c-7 -22 -5 -138 3 -158 2 -7 17 -13 33 -13 l30 0 -3 93
c-3 91 -3 92 -30 95 -19 2 -28 -2 -33 -17z"/>
<path d="M1256 398 c-3 -13 -6 -56 -6 -95 l0 -73 35 0 c33 0 35 2 35 33 l1 32
14 -32 c11 -25 20 -33 40 -33 28 0 30 7 13 45 -9 21 -9 31 0 46 34 54 -2 99
-79 99 -40 0 -48 -3 -53 -22z m84 -52 c0 -17 -14 -29 -23 -20 -8 8 3 34 14 34
5 0 9 -6 9 -14z"/>
<path d="M1475 410 c-10 -16 -55 -152 -55 -167 0 -18 56 -17 63 1 6 15 47 11
58 -6 3 -5 19 -8 35 -6 l30 3 -29 93 -28 92 -34 0 c-19 0 -37 -5 -40 -10z m45
-85 c0 -8 -4 -15 -10 -15 -5 0 -10 7 -10 15 0 8 5 15 10 15 6 0 10 -7 10 -15z"/>
<path d="M197 203 c-4 -3 -7 -17 -7 -30 l0 -23 715 0 715 0 0 30 0 30 -708 0
c-390 0 -712 -3 -715 -7z"/>
<path d="M90 115 c-25 -30 24 -59 60 -34 12 8 10 9 -10 7 -17 -2 -25 2 -25 12
0 10 8 14 25 12 20 -2 22 -1 10 7 -21 15 -46 13 -60 -4z"/>
<path d="M170 100 c0 -27 3 -30 30 -30 23 0 30 4 30 20 0 14 -7 20 -22 21 -22
1 -22 1 2 9 24 8 23 8 -7 9 -30 1 -33 -2 -33 -29z"/>
<path d="M240 101 c0 -30 14 -43 22 -20 3 9 9 9 24 1 24 -12 254 -13 254 0 0
5 -8 8 -17 6 -12 -2 -19 4 -21 20 -5 31 -22 27 -22 -5 l-1 -28 -17 28 c-21 34
-35 34 -52 2 -7 -13 -17 -22 -22 -19 -4 3 -6 10 -3 15 4 5 -4 9 -17 10 -23 1
-23 1 2 9 22 8 21 9 -10 7 -27 -2 -36 -7 -41 -27 -7 -24 -10 -22 -13 10 0 9
-13 16 -33 18 -31 3 -33 1 -33 -27z"/>
<path d="M550 100 c0 -16 5 -30 10 -30 6 0 10 14 10 30 0 17 -4 30 -10 30 -5
0 -10 -13 -10 -30z"/>
<path d="M585 120 c-3 -5 3 -13 12 -19 17 -10 17 -10 0 -11 -10 0 -15 -4 -12
-10 8 -14 52 -13 61 1 3 6 1 15 -6 19 -8 5 -7 9 5 14 22 8 35 -1 35 -25 0 -10
5 -19 10 -19 6 0 10 11 10 24 0 13 6 27 13 29 6 3 -18 5 -55 5 -38 0 -70 -4
-73 -8z"/>
<path d="M738 113 c-30 -36 -29 -40 16 -39 l44 1 -16 28 c-19 32 -24 33 -44
10z"/>
<path d="M840 115 c-16 -20 3 -45 35 -45 32 0 51 25 35 45 -7 8 -23 15 -35 15
-12 0 -28 -7 -35 -15z m50 -16 c0 -5 -7 -9 -15 -9 -15 0 -20 12 -9 23 8 8 24
-1 24 -14z"/>
<path d="M930 100 c0 -27 3 -30 30 -30 17 0 30 5 30 11 0 6 -9 8 -20 4 -16 -5
-20 -2 -20 19 0 14 -4 26 -10 26 -5 0 -10 -13 -10 -30z"/>
<path d="M1000 100 c0 -16 5 -30 10 -30 6 0 10 14 10 30 0 17 -4 30 -10 30 -5
0 -10 -13 -10 -30z"/>
<path d="M1030 118 c0 -8 7 -23 15 -34 15 -19 15 -19 35 5 11 13 20 27 20 32
0 15 -18 10 -24 -7 -6 -15 -8 -15 -26 1 -16 15 -20 15 -20 3z"/>
<path d="M1110 100 c0 -27 3 -30 30 -30 23 0 30 4 30 20 0 14 -7 20 -22 21
-22 1 -22 1 2 9 24 8 23 8 -7 9 -30 1 -33 -2 -33 -29z"/>
<path d="M1180 100 c0 -16 5 -30 10 -30 6 0 10 14 10 30 0 17 -4 30 -10 30 -5
0 -10 -13 -10 -30z"/>
<path d="M1214 116 c-10 -25 4 -50 20 -37 7 6 16 8 20 4 9 -9 116 -12 116 -3
0 3 -9 16 -20 30 l-20 25 -25 -30 c-14 -16 -25 -25 -26 -20 -1 6 -2 17 -3 25
-2 21 -54 26 -62 6z"/>
<path d="M1410 100 c0 -27 3 -30 30 -30 17 0 30 4 30 9 0 5 -9 7 -20 4 -16 -4
-20 0 -20 21 0 14 -4 26 -10 26 -5 0 -10 -13 -10 -30z"/>
<path d="M1478 123 c6 -2 12 -16 12 -29 0 -13 5 -24 10 -24 6 0 10 11 10 25 0
16 6 25 15 25 9 0 15 -9 15 -25 0 -21 5 -25 29 -25 39 0 57 22 36 44 -12 11
-34 16 -78 15 -34 0 -56 -3 -49 -6z m112 -24 c0 -5 -7 -9 -15 -9 -8 0 -15 7
-15 15 0 9 6 12 15 9 8 -4 15 -10 15 -15z"/>
<path d="M1636 108 c-22 -31 -21 -33 24 -33 22 0 40 1 40 3 0 9 -34 52 -41 52
-4 0 -15 -10 -23 -22z"/>
</g>
</svg>
